# xmcd
#
# Track frame offsets:
# 150
# 12051
# 29341
# 44024
# 57286
# 68891
# 101943
# 119604
# 145768
# 172729
# 186463
# 199559
# 221465
# 234853
# 248499
# 260858
# 278431
# 293662
# 310958
# 322798
#
# Disc length: 4513 seconds
#
#
# Revision: 3
# Processed by: cddbd v1.5.2PL0 Copyright (c) Steve Scherf et al.
# Submitted via: FreeRIP 2.945 
#
DISCID=1e119f14
DTITLE=Hank Williams Jr - The Bocephus Box Disc 3
DYEAR=1900
DGENRE=Country
TTITLE0=Keep Your Hands To Yourself
TTITLE1=Walk This Way
TTITLE2=Heaven Can't Be Found
TTITLE3=Thanks A Lot
TTITLE4=All My Rowdy Friends (Have Settled Down) (Solo)
TTITLE5=A Country Boy Can Survive
TTITLE6=You're Gonna Be A Sorry Man
TTITLE7=Tuesday's Gone
TTITLE8=Mannish Boy
TTITLE9=Finders Keepers
TTITLE10=There's A Tear In My Beer
TTITLE11=Big Mamou
TTITLE12=Man To Man
TTITLE13=Stoned At The Jukebox
TTITLE14=T'ain't Nobody's Bizness
TTITLE15=Lone Wolf
TTITLE16=If It Will It Will
TTITLE17=Hotel Whiskey
TTITLE18=Low Down Blues
TTITLE19=Naked Women And Beer
EXTD=
EXTT0=
EXTT1=
EXTT2=
EXTT3=
EXTT4=
EXTT5=
EXTT6=
EXTT7=
EXTT8=
EXTT9=
EXTT10=
EXTT11=
EXTT12=
EXTT13=
EXTT14=
EXTT15=
EXTT16=
EXTT17=
EXTT18=
EXTT19=
PLAYORDER=
